<?xml version="1.0" encoding="utf-8"?>
<svg version="1.1" xmlns:xlink="http://www.w3.org/1999/xlink" width="28px" height="34px" xmlns="http://www.w3.org/2000/svg">
  <defs>
    <filter x="692px" y="42px" width="28px" height="34px" filterUnits="userSpaceOnUse" id="filter56">
      <feOffset dx="1" dy="1" in="SourceAlpha" result="shadowOffsetInner" />
      <feGaussianBlur stdDeviation="2.5" in="shadowOffsetInner" result="shadowGaussian" />
      <feComposite in2="shadowGaussian" operator="atop" in="SourceAlpha" result="shadowComposite" />
      <feColorMatrix type="matrix" values="0 0 0 0 0  0 0 0 0 0  0 0 0 0 0  0 0 0 0.698039215686274 0  " in="shadowComposite" />
    </filter>
    <g id="widget57">
      <path d="M 705 69.0369284683536  C 701.6 63.4073405959099  696.5 60.0295878724437  696.5 54.4  C 696.5 51.4657142857143  698.2 46.5  705 46.5  C 711.8 46.5  713.5 51.4657142857143  713.5 54.4  C 713.5 60.0295878724437  708.4 63.4073405959099  705 69.0369284683536  Z " fill-rule="nonzero" fill="#009dd9" stroke="none" />
      <path d="M 705 70  C 701.4 64  696 60.4  696 54.4  C 696 51.28  697.8 46  705 46  C 712.2 46  714 51.28  714 54.4  C 714 60.4  708.6 64  705 70  Z M 705 68.0738569367072  C 708.2 62.8146811918198  713 59.6591757448874  713 54.4  C 713 51.6514285714286  711.4 47  705 47  C 698.6 47  697 51.6514285714286  697 54.4  C 697 59.6591757448874  701.8 62.8146811918198  705 68.0738569367072  Z " fill-rule="nonzero" fill="#ffffff" stroke="none" />
    </g>
  </defs>
  <g transform="matrix(1 0 0 1 -692 -42 )">
    <use xlink:href="#widget57" filter="url(#filter56)" />
    <use xlink:href="#widget57" />
  </g>
</svg>